<svg width="776" height="20" viewBox="0 0 776 20" fill="none" xmlns="http://www.w3.org/2000/svg">
<path d="M5.536 16.256C4.544 16.256 3.664 16.0267 2.896 15.568C2.13867 15.1093 1.54133 14.4427 1.104 13.568C0.677333 12.6933 0.464 11.6373 0.464 10.4C0.464 9.16267 0.677333 8.10667 1.104 7.232C1.54133 6.35733 2.13867 5.69067 2.896 5.232C3.664 4.77333 4.544 4.544 5.536 4.544C6.528 4.544 7.40267 4.77333 8.16 5.232C8.928 5.69067 9.52533 6.35733 9.952 7.232C10.3893 8.10667 10.608 9.16267 10.608 10.4C10.608 11.6373 10.3893 12.6933 9.952 13.568C9.52533 14.4427 8.928 15.1093 8.16 15.568C7.40267 16.0267 6.528 16.256 5.536 16.256ZM5.536 13.232C5.78133 13.232 6 13.1467 6.192 12.976C6.384 12.8053 6.53333 12.512 6.64 12.096C6.75733 11.68 6.816 11.1147 6.816 10.4C6.816 9.67467 6.75733 9.10933 6.64 8.704C6.53333 8.288 6.384 7.99467 6.192 7.824C6 7.65333 5.78133 7.568 5.536 7.568C5.29067 7.568 5.072 7.65333 4.88 7.824C4.688 7.99467 4.53333 8.288 4.416 8.704C4.30933 9.10933 4.256 9.67467 4.256 10.4C4.256 11.1147 4.30933 11.68 4.416 12.096C4.53333 12.512 4.688 12.8053 4.88 12.976C5.072 13.1467 5.29067 13.232 5.536 13.232ZM12.9219 16V6.112L14.5379 7.648H11.0019V4.8H16.6979V16H12.9219Z" fill="#48B8CE"/>
<path d="M254.536 16.256C253.544 16.256 252.664 16.0267 251.896 15.568C251.139 15.1093 250.541 14.4427 250.104 13.568C249.677 12.6933 249.464 11.6373 249.464 10.4C249.464 9.16267 249.677 8.10667 250.104 7.232C250.541 6.35733 251.139 5.69067 251.896 5.232C252.664 4.77333 253.544 4.544 254.536 4.544C255.528 4.544 256.403 4.77333 257.16 5.232C257.928 5.69067 258.525 6.35733 258.952 7.232C259.389 8.10667 259.608 9.16267 259.608 10.4C259.608 11.6373 259.389 12.6933 258.952 13.568C258.525 14.4427 257.928 15.1093 257.16 15.568C256.403 16.0267 255.528 16.256 254.536 16.256ZM254.536 13.232C254.781 13.232 255 13.1467 255.192 12.976C255.384 12.8053 255.533 12.512 255.64 12.096C255.757 11.68 255.816 11.1147 255.816 10.4C255.816 9.67467 255.757 9.10933 255.64 8.704C255.533 8.288 255.384 7.99467 255.192 7.824C255 7.65333 254.781 7.568 254.536 7.568C254.291 7.568 254.072 7.65333 253.88 7.824C253.688 7.99467 253.533 8.288 253.416 8.704C253.309 9.10933 253.256 9.67467 253.256 10.4C253.256 11.1147 253.309 11.68 253.416 12.096C253.533 12.512 253.688 12.8053 253.88 12.976C254.072 13.1467 254.291 13.232 254.536 13.232ZM260.37 16V13.68L264.418 9.936C264.674 9.69067 264.861 9.47733 264.978 9.296C265.106 9.11467 265.191 8.95467 265.234 8.816C265.277 8.66667 265.298 8.528 265.298 8.4C265.298 8.12267 265.207 7.90933 265.026 7.76C264.845 7.6 264.573 7.52 264.21 7.52C263.879 7.52 263.565 7.61067 263.266 7.792C262.967 7.96267 262.733 8.21867 262.562 8.56L259.714 7.136C260.119 6.368 260.727 5.744 261.538 5.264C262.349 4.784 263.357 4.544 264.562 4.544C265.447 4.544 266.231 4.688 266.914 4.976C267.597 5.264 268.13 5.66933 268.514 6.192C268.898 6.71467 269.09 7.33333 269.09 8.048C269.09 8.41067 269.042 8.77333 268.946 9.136C268.861 9.49867 268.679 9.88267 268.402 10.288C268.125 10.6827 267.714 11.1253 267.17 11.616L264.13 14.384L263.538 13.072H269.346V16H260.37Z" fill="#48B8CE"/>
<path d="M506.536 16.256C505.544 16.256 504.664 16.0267 503.896 15.568C503.139 15.1093 502.541 14.4427 502.104 13.568C501.677 12.6933 501.464 11.6373 501.464 10.4C501.464 9.16267 501.677 8.10667 502.104 7.232C502.541 6.35733 503.139 5.69067 503.896 5.232C504.664 4.77333 505.544 4.544 506.536 4.544C507.528 4.544 508.403 4.77333 509.16 5.232C509.928 5.69067 510.525 6.35733 510.952 7.232C511.389 8.10667 511.608 9.16267 511.608 10.4C511.608 11.6373 511.389 12.6933 510.952 13.568C510.525 14.4427 509.928 15.1093 509.16 15.568C508.403 16.0267 507.528 16.256 506.536 16.256ZM506.536 13.232C506.781 13.232 507 13.1467 507.192 12.976C507.384 12.8053 507.533 12.512 507.64 12.096C507.757 11.68 507.816 11.1147 507.816 10.4C507.816 9.67467 507.757 9.10933 507.64 8.704C507.533 8.288 507.384 7.99467 507.192 7.824C507 7.65333 506.781 7.568 506.536 7.568C506.291 7.568 506.072 7.65333 505.88 7.824C505.688 7.99467 505.533 8.288 505.416 8.704C505.309 9.10933 505.256 9.67467 505.256 10.4C505.256 11.1147 505.309 11.68 505.416 12.096C505.533 12.512 505.688 12.8053 505.88 12.976C506.072 13.1467 506.291 13.232 506.536 13.232ZM516.242 16.256C515.474 16.256 514.695 16.1707 513.906 16C513.117 15.8293 512.423 15.5787 511.826 15.248L513.106 12.464C513.586 12.7413 514.087 12.9493 514.61 13.088C515.143 13.216 515.645 13.28 516.114 13.28C516.541 13.28 516.887 13.2107 517.154 13.072C517.431 12.9227 517.57 12.704 517.57 12.416C517.57 12.1707 517.469 11.984 517.266 11.856C517.063 11.7173 516.722 11.648 516.242 11.648H514.754V9.328L517.65 6.384L517.986 7.648H512.402V4.8H520.754V7.12L517.858 10.064L516.05 9.04H517.042C518.45 9.04 519.522 9.35467 520.258 9.984C520.994 10.6133 521.362 11.424 521.362 12.416C521.362 13.056 521.181 13.6693 520.818 14.256C520.466 14.8427 519.911 15.3227 519.154 15.696C518.407 16.0693 517.437 16.256 516.242 16.256Z" fill="#48B8CE"/>
<path d="M758.536 16.256C757.544 16.256 756.664 16.0267 755.896 15.568C755.139 15.1093 754.541 14.4427 754.104 13.568C753.677 12.6933 753.464 11.6373 753.464 10.4C753.464 9.16267 753.677 8.10667 754.104 7.232C754.541 6.35733 755.139 5.69067 755.896 5.232C756.664 4.77333 757.544 4.544 758.536 4.544C759.528 4.544 760.403 4.77333 761.16 5.232C761.928 5.69067 762.525 6.35733 762.952 7.232C763.389 8.10667 763.608 9.16267 763.608 10.4C763.608 11.6373 763.389 12.6933 762.952 13.568C762.525 14.4427 761.928 15.1093 761.16 15.568C760.403 16.0267 759.528 16.256 758.536 16.256ZM758.536 13.232C758.781 13.232 759 13.1467 759.192 12.976C759.384 12.8053 759.533 12.512 759.64 12.096C759.757 11.68 759.816 11.1147 759.816 10.4C759.816 9.67467 759.757 9.10933 759.64 8.704C759.533 8.288 759.384 7.99467 759.192 7.824C759 7.65333 758.781 7.568 758.536 7.568C758.291 7.568 758.072 7.65333 757.88 7.824C757.688 7.99467 757.533 8.288 757.416 8.704C757.309 9.10933 757.256 9.67467 757.256 10.4C757.256 11.1147 757.309 11.68 757.416 12.096C757.533 12.512 757.688 12.8053 757.88 12.976C758.072 13.1467 758.291 13.232 758.536 13.232ZM764.446 14.08V11.68L769.198 4.8H773.07L768.494 11.68L766.734 11.152H775.406V14.08H764.446ZM770.254 16V14.08L770.366 11.152V9.44H773.918V16H770.254Z" fill="#48B8CE"/>
<rect x="26" y="8" width="215" height="4" fill="#48B8CE"/>
<rect x="278" y="8" width="215" height="4" fill="#48B8CE"/>
<rect x="530" y="8" width="215" height="4" fill="#48B8CE"/>
</svg>
