<svg width="20" height="20" viewBox="0 0 20 20" fill="none" xmlns="http://www.w3.org/2000/svg">
<path d="M10 18C12.1217 18 14.1566 17.1571 15.6569 15.6569C17.1571 14.1566 18 12.1217 18 10C18 7.87827 17.1571 5.84344 15.6569 4.34315C14.1566 2.84285 12.1217 2 10 2C7.87827 2 5.84344 2.84285 4.34315 4.34315C2.84285 5.84344 2 7.87827 2 10C2 12.1217 2.84285 14.1566 4.34315 15.6569C5.84344 17.1571 7.87827 18 10 18ZM10 20C4.477 20 0 15.523 0 10C0 4.477 4.477 0 10 0C15.523 0 20 4.477 20 10C20 15.523 15.523 20 10 20Z" fill="black"/>
<path d="M13.6439 9.40396C13.6559 7.91197 12.4249 6.54396 10.8999 6.35496L10.7999 6.33996C10.7235 6.32478 10.6458 6.31608 10.5679 6.31396C10.2549 6.31396 10.1719 6.53996 10.1499 6.67496C10.1374 6.73103 10.1363 6.78903 10.1466 6.84554C10.1569 6.90204 10.1785 6.95591 10.2099 7.00396C10.3139 7.14896 10.4959 7.17396 10.6419 7.19596C10.6849 7.20196 10.7259 7.20696 10.7589 7.21596C12.1299 7.53096 12.5919 8.02796 12.8169 9.43096C12.8229 9.46596 12.8249 9.50797 12.8269 9.55297C12.8369 9.71997 12.8579 10.069 13.2219 10.069C13.2519 10.069 13.2839 10.067 13.3179 10.061C13.6569 10.008 13.6459 9.68896 13.6409 9.53596C13.6384 9.49901 13.6384 9.46192 13.6409 9.42496C13.642 9.41835 13.6427 9.41167 13.6429 9.40496L13.6439 9.40396Z" fill="black"/>
<path d="M10.4799 5.80689C10.5199 5.80989 10.5599 5.81289 10.5909 5.81789C12.8409 6.17589 13.8769 7.27589 14.1639 9.61789C14.1689 9.65789 14.1689 9.70589 14.1699 9.75789C14.1729 9.94089 14.1789 10.3209 14.5749 10.3289H14.5869C14.6413 10.3318 14.6956 10.323 14.7463 10.3032C14.797 10.2833 14.8429 10.2529 14.8809 10.2139C15.0039 10.0809 14.9959 9.88389 14.9889 9.72389C14.9869 9.68589 14.9849 9.64889 14.9859 9.61689C15.0139 7.22189 13.0059 5.04989 10.6879 4.96989L10.6599 4.97089C10.6509 4.97221 10.6419 4.97287 10.6329 4.97289C10.6099 4.97289 10.5809 4.97089 10.5509 4.96889C10.511 4.96524 10.4709 4.96324 10.4309 4.96289C10.0619 4.96289 9.99188 5.23289 9.98288 5.39489C9.96288 5.76789 10.3119 5.79489 10.4799 5.80689ZM14.0549 12.6439C14.0067 12.6062 13.9591 12.5678 13.9119 12.5289C13.6659 12.3249 13.4039 12.1369 13.1519 11.9549C13.0992 11.917 13.0465 11.879 12.9939 11.8409C12.6699 11.6069 12.3789 11.4919 12.1039 11.4919C11.7339 11.4919 11.4109 11.7039 11.1439 12.1209C11.0259 12.3049 10.8819 12.3949 10.7059 12.3949C10.583 12.3905 10.4626 12.3595 10.3529 12.3039C9.30788 11.8139 8.56088 11.0639 8.13388 10.0739C7.92788 9.59389 7.99388 9.28189 8.35788 9.02689C8.56388 8.88289 8.94788 8.61389 8.92088 8.09889C8.89088 7.51389 7.63988 5.75389 7.11288 5.55389C6.88808 5.46905 6.64017 5.46834 6.41488 5.55189C5.80988 5.76189 5.37488 6.13189 5.15788 6.61889C4.94788 7.09089 4.95788 7.64389 5.18588 8.21989C5.84288 9.88589 6.76588 11.3379 7.93188 12.5359C9.07188 13.7089 10.4739 14.6689 12.0979 15.3909C12.2439 15.4559 12.3979 15.4909 12.5099 15.5169L12.6049 15.5409C12.6179 15.5446 12.6313 15.5466 12.6449 15.5469H12.6579C13.4219 15.5469 14.3389 14.8269 14.6209 14.0049C14.8679 13.2849 14.4169 12.9299 14.0549 12.6449V12.6439ZM10.8179 7.70989C10.6879 7.71289 10.4149 7.71989 10.3189 8.00589C10.2749 8.13989 10.2799 8.25589 10.3349 8.35089C10.4159 8.49089 10.5719 8.53389 10.7129 8.55689C11.2249 8.64189 11.4889 8.93489 11.5409 9.47689C11.5659 9.73089 11.7309 9.90689 11.9429 9.90689C11.9589 9.90723 11.9749 9.90656 11.9909 9.90489C12.2459 9.87289 12.3689 9.67989 12.3579 9.32989C12.3619 8.96389 12.1769 8.54989 11.8619 8.21989C11.5459 7.88789 11.1649 7.70089 10.8179 7.70989Z" fill="black"/>
</svg>
