<svg width="20" height="20" viewBox="0 0 20 20" fill="none" xmlns="http://www.w3.org/2000/svg">
<path d="M17.0854 2.91006C16.164 1.98399 15.0665 1.24973 13.8569 0.750111C12.6473 0.250494 11.3499 -0.00448012 10.0402 5.95696e-05C4.55276 5.95696e-05 0.0804022 4.45006 0.0804022 9.91006C0.0804022 11.6601 0.542714 13.3601 1.40704 14.8601L0 20.0001L5.27638 18.6201C6.73367 19.4101 8.37186 19.8301 10.0402 19.8301C15.5276 19.8301 20 15.3801 20 9.92006C20 7.27006 18.9648 4.78006 17.0854 2.91006ZM10.0402 18.1501C8.55276 18.1501 7.09548 17.7501 5.81909 17.0001L5.51759 16.8201L2.38191 17.6401L3.21608 14.6001L3.01508 14.2901C2.18869 12.977 1.74989 11.4593 1.74874 9.91006C1.74874 5.37006 5.46734 1.67006 10.0301 1.67006C12.2412 1.67006 14.3216 2.53006 15.8794 4.09006C16.6507 4.85402 17.262 5.76272 17.6778 6.76348C18.0936 7.76425 18.3056 8.83717 18.3015 9.92006C18.3216 14.4601 14.603 18.1501 10.0402 18.1501ZM14.5829 11.9901C14.3317 11.8701 13.1055 11.2701 12.8844 11.1801C12.6533 11.1001 12.4925 11.0601 12.3216 11.3001C12.1508 11.5501 11.6784 12.1101 11.5377 12.2701C11.397 12.4401 11.2462 12.4601 10.995 12.3301C10.7437 12.2101 9.9397 11.9401 8.99497 11.1001C8.25126 10.4401 7.75879 9.63006 7.60804 9.38006C7.46734 9.13006 7.58794 9.00006 7.71859 8.87006C7.82914 8.76006 7.96985 8.58006 8.09045 8.44006C8.21105 8.30006 8.26131 8.19006 8.34171 8.03006C8.42211 7.86006 8.38191 7.72006 8.32161 7.60006C8.26131 7.48006 7.75879 6.26006 7.55779 5.76006C7.35678 5.28006 7.14573 5.34006 6.99497 5.33006H6.51256C6.34171 5.33006 6.0804 5.39006 5.84925 5.64006C5.62814 5.89006 4.98492 6.49006 4.98492 7.71006C4.98492 8.93006 5.8794 10.1101 6 10.2701C6.1206 10.4401 7.75879 12.9401 10.2513 14.0101C10.8442 14.2701 11.3065 14.4201 11.6683 14.5301C12.2613 14.7201 12.804 14.6901 13.2362 14.6301C13.7186 14.5601 14.7136 14.0301 14.9146 13.4501C15.1256 12.8701 15.1256 12.3801 15.0553 12.2701C14.9849 12.1601 14.8342 12.1101 14.5829 11.9901Z" fill="#FFD100"/>
</svg>
